<svg width="128" height="128" viewBox="0 0 128 128" fill="none" xmlns="http://www.w3.org/2000/svg">
<mask id="mask0" mask-type="alpha" maskUnits="userSpaceOnUse" x="0" y="0" width="128" height="128">
<circle cx="64" cy="64" r="54" fill="white" stroke="#2400FF" stroke-width="20"/>
</mask>
<g mask="url(#mask0)">
<circle cx="64" cy="64" r="63" fill="white" stroke="#2400FF" stroke-width="2"/>
<path d="M67.7208 70.0087L111.408 116.195L65.126 133.53L67.7208 70.0087Z" fill="url(#paint0_linear)"/>
<path d="M51.556 114.242C52.752 92.162 53.35 72.474 53.35 55.178C53.35 37.882 53.304 26.52 53.212 21.092C63.332 16.308 73.866 13.916 84.814 13.916C92.91 13.916 99.672 16.492 105.1 21.644C110.62 26.796 113.38 34.064 113.38 43.448C113.38 54.304 105.698 64.746 90.334 74.774C98.706 85.262 107.262 96.808 116.002 109.412L102.754 119.21C96.958 110.47 86.562 96.21 71.566 76.43C71.29 90.598 70.876 103.892 70.324 116.312L51.556 114.242ZM71.98 67.046C78.788 63.826 84.584 59.87 89.368 55.178C94.152 50.394 96.544 46.07 96.544 42.206C96.544 38.342 95.394 35.352 93.094 33.236C90.886 31.12 87.942 30.062 84.262 30.062C80.582 30.062 76.534 30.844 72.118 32.408C72.118 47.956 72.072 59.502 71.98 67.046Z" fill="black"/>
<path d="M34.6894 90.9463C30.3699 90.8802 26.9881 90.1883 24.5439 88.8708C22.0683 87.5208 20.8459 85.8379 20.8767 83.8221C20.9081 81.7743 21.9717 80.2384 24.0676 79.2144C26.132 78.1578 28.972 77.6572 32.5876 77.7125L32.0393 82.1687C28.4558 82.1138 26.6554 82.6464 26.6383 83.7662C26.6236 84.7261 29.3359 85.2477 34.7753 85.3309L36.1671 85.3522C36.0399 83.206 35.9866 81.461 36.0072 80.1171L40.4707 80.1854C40.4369 82.3932 40.4904 84.1222 40.6313 85.3725C45.5268 85.4474 50.9688 85.3547 56.9575 85.0942L56.2957 90.7008C51.8763 90.8892 46.8821 90.9888 41.3133 90.9996C41.4286 91.8335 41.5318 92.4111 41.6229 92.7325L37.2879 93.6743C37.1968 93.3529 37.0346 92.4543 36.8011 90.9786L34.6894 90.9463ZM47.6701 74.0016C51.2857 74.0569 53.1057 73.2847 53.1302 71.6849C53.141 70.981 52.1422 70.3736 50.1337 69.8628C48.0933 69.3515 46.1452 69.0817 44.2894 69.0533C40.1939 68.9906 38.1359 69.6312 38.1153 70.9751C38.1021 71.839 39.1952 72.5598 41.3946 73.1375C43.5625 73.6827 45.6544 73.9708 47.6701 74.0016ZM47.1523 79.6103C44.1766 79.5648 41.2742 78.9123 38.4452 77.6529C37.0151 76.9909 35.861 76.0772 34.9827 74.9116C34.0729 73.7136 33.6291 72.3946 33.6511 70.9548C33.6731 69.5149 34.0279 68.2882 34.7155 67.2746C35.3716 66.2285 36.2477 65.4419 37.3439 64.9146C39.5038 63.8915 41.8476 63.3993 44.3753 63.438C47.8629 63.4913 50.9556 64.2587 53.6532 65.7402C56.3194 67.1891 57.6328 69.1935 57.5937 71.7532C57.5119 77.0965 54.0314 79.7156 47.1523 79.6103ZM33.8193 50.5471C33.884 46.3236 37.4359 44.2657 44.475 44.3734C48.1866 44.4302 52.1189 44.6984 56.2721 45.178L55.6582 50.7852C52.0161 50.3775 48.3392 50.1452 44.6276 50.0884C40.884 50.0311 39.0042 50.5304 38.988 51.5863C38.9802 52.0982 40.266 52.774 42.8455 53.6135C45.3929 54.4526 47.8971 54.987 50.3578 55.2167C51.6707 55.1727 54.0403 55.081 57.4669 54.9414L56.853 60.5486C52.3362 60.8316 48.3659 60.9469 44.9423 60.8945C41.5187 60.8421 38.4486 60.6991 35.7318 60.4655L36.1701 56.9198C36.4271 56.8597 37.4706 56.6357 39.3008 56.2476C35.6176 54.335 33.7904 52.4349 33.8193 50.5471ZM36.9348 28.9045L41.4943 28.9742C41.4708 30.5101 41.4687 31.6942 41.4879 32.5265C44.6861 32.6715 50.0607 32.8017 57.6118 32.9173L56.9972 38.5725C51.3979 38.4869 46.3272 38.3613 41.7852 38.1958C41.7779 38.6757 41.8439 39.5888 41.9833 40.9351L38.0368 41.5948C37.8885 40.8245 37.6989 39.6214 37.4679 37.9857C35.1012 37.8855 31.6475 37.7046 27.107 37.4431L27.7223 31.7399C30.887 31.9803 33.9565 32.1713 36.9307 32.3128C36.9109 31.5124 36.9123 30.3763 36.9348 28.9045Z" fill="black"/>
<path d="M34.6894 90.9463C30.3699 90.8802 26.9881 90.1883 24.5439 88.8708C22.0683 87.5208 20.8459 85.8379 20.8767 83.8221C20.9081 81.7743 21.9717 80.2384 24.0676 79.2144C26.132 78.1578 28.972 77.6572 32.5876 77.7125L32.0393 82.1687C28.4558 82.1138 26.6554 82.6464 26.6383 83.7662C26.6236 84.7261 29.3359 85.2477 34.7753 85.3309L36.1671 85.3522C36.0399 83.206 35.9866 81.461 36.0072 80.1171L40.4707 80.1854C40.4369 82.3932 40.4904 84.1222 40.6313 85.3725C45.5268 85.4474 50.9688 85.3547 56.9575 85.0942L56.2957 90.7008C51.8763 90.8892 46.8821 90.9888 41.3133 90.9996C41.4286 91.8335 41.5318 92.4111 41.6229 92.7325L37.2879 93.6743C37.1968 93.3529 37.0346 92.4543 36.8011 90.9786L34.6894 90.9463ZM47.6701 74.0016C51.2857 74.0569 53.1057 73.2847 53.1302 71.6849C53.141 70.981 52.1422 70.3736 50.1337 69.8628C48.0933 69.3515 46.1452 69.0817 44.2894 69.0533C40.1939 68.9906 38.1359 69.6312 38.1153 70.9751C38.1021 71.839 39.1952 72.5598 41.3946 73.1375C43.5625 73.6827 45.6544 73.9708 47.6701 74.0016ZM47.1523 79.6103C44.1766 79.5648 41.2742 78.9123 38.4452 77.6529C37.0151 76.9909 35.861 76.0772 34.9827 74.9116C34.0729 73.7136 33.6291 72.3946 33.6511 70.9548C33.6731 69.5149 34.0279 68.2882 34.7155 67.2746C35.3716 66.2285 36.2477 65.4419 37.3439 64.9146C39.5038 63.8915 41.8476 63.3993 44.3753 63.438C47.8629 63.4913 50.9556 64.2587 53.6532 65.7402C56.3194 67.1891 57.6328 69.1935 57.5937 71.7532C57.5119 77.0965 54.0314 79.7156 47.1523 79.6103ZM33.8193 50.5471C33.884 46.3236 37.4359 44.2657 44.475 44.3734C48.1866 44.4302 52.1189 44.6984 56.2721 45.178L55.6582 50.7852C52.0161 50.3775 48.3392 50.1452 44.6276 50.0884C40.884 50.0311 39.0042 50.5304 38.988 51.5863C38.9802 52.0982 40.266 52.774 42.8455 53.6135C45.3929 54.4526 47.8971 54.987 50.3578 55.2167C51.6707 55.1727 54.0403 55.081 57.4669 54.9414L56.853 60.5486C52.3362 60.8316 48.3659 60.9469 44.9423 60.8945C41.5187 60.8421 38.4486 60.6991 35.7318 60.4655L36.1701 56.9198C36.4271 56.8597 37.4706 56.6357 39.3008 56.2476C35.6176 54.335 33.7904 52.4349 33.8193 50.5471ZM36.9348 28.9045L41.4943 28.9742C41.4708 30.5101 41.4687 31.6942 41.4879 32.5265C44.6861 32.6715 50.0607 32.8017 57.6118 32.9173L56.9972 38.5725C51.3979 38.4869 46.3272 38.3613 41.7852 38.1958C41.7779 38.6757 41.8439 39.5888 41.9833 40.9351L38.0368 41.5948C37.8885 40.8245 37.6989 39.6214 37.4679 37.9857C35.1012 37.8855 31.6475 37.7046 27.107 37.4431L27.7223 31.7399C30.887 31.9803 33.9565 32.1713 36.9307 32.3128C36.9109 31.5124 36.9123 30.3763 36.9348 28.9045Z" fill="black"/>
<circle cx="64" cy="64" r="63" stroke="#2400FF" stroke-width="2"/>
</g>
<defs>
<linearGradient id="paint0_linear" x1="67.7208" y1="70.0087" x2="88.895" y2="126.582" gradientUnits="userSpaceOnUse">
<stop stop-color="#0500FF"/>
<stop offset="1" stop-color="#0500FD" stop-opacity="0.25"/>
</linearGradient>
</defs>
</svg>
